Patient4_TMGait_0pt7_02_right_35_EMG.mot
version=1
nRows=36
nColumns=33
inDegrees=no
endheader
time	1LAddLong	2LGlutMax	3LGlutMed	4LIliopsoas	5LSemiMemb	6LBicFemLong	7LRecFem	8LVastMed	9LVastLat	10LGasMed	11LTibAnt	12lTibPost	13LPeroneusLong	14LSol	15LExtDigLong	16LFlexDigLong	17RAddLong	18RGlutMax	19RGlutMed	20RIliopsoas	21RSemiMemb	22RBicFemLong	23RRecFem	24RVastMed	25RVastLat	26RGasMed	27RTibAnt	28RTibPost	29RPeroneusLong	30RSol	31RExtDigLong	32RFlexDigLong
40.295	-0.051422	-0.32242	-0.10788	-0.001831	-0.070038	0.63126	-0.13855	0.047302	0.13489	-0.00351	0.10391	-0.002899	-0.025482	-0.058594	0.045166	-0.009003	0.04715	0.034027	-0.19943	0.13489	0.12543	-0.007935	-0.41214	-0.000916	0.039063	-0.002899	0.23621	-0.005646	-0.32105	-0.099792	-0.005798	-0.030212
40.296	-0.01236	-0.26566	-0.17731	-0.016785	-0.14694	0.36026	-0.13626	0.002899	0.23941	-0.007172	0.20447	0.000916	-0.026398	-0.067291	0.078583	-0.006409	0.039978	0.08194	0.005188	0.075226	0.13901	0.011139	-0.41336	0.003204	0.034332	-0.011139	0.43243	-0.003052	-0.52033	-0.098877	0.003204	-0.027924
40.297	0.059509	-0.23163	-0.077515	-0.007019	-0.064697	-0.10956	-0.13199	-0.056305	0.066986	-0.029449	0.13687	0.005798	0.006714	-0.088043	0.090942	-0.005035	0.039673	0.086365	0.058746	0.020142	0.14191	0.009308	-0.37888	-0.019531	0.035095	-0.00473	0.3183	-0.006561	-0.32577	-0.18784	-0.00351	-0.032654
40.298	0.074615	-0.15701	-0.067749	0.010223	0.028381	-0.17838	-0.11536	-0.076904	-0.070038	-0.052643	-0.057526	-0.013275	0.036163	-0.066528	0.054474	-0.009918	0.027924	0.074463	0.22369	-0.073395	0.14557	-0.000916	-0.40604	-0.028381	0.036774	-0.003967	0.2121	-0.010986	0.12177	-0.22064	-0.001831	-0.016174
40.299	0.079803	-0.093994	0.035553	0.000305	0.18402	-0.55786	-0.078278	-0.050812	-0.010834	-0.052795	-0.1384	0.008392	-0.001831	-0.019073	0.055847	-0.008545	-0.009155	0.050354	-0.037384	-0.066986	0.14984	-0.006866	-0.47089	-0.036163	0.042114	-0.00885	0.052948	-0.00824	0.30655	-0.083771	-0.000458	-0.020294
40.3	0.079651	-0.08255	0.013428	0.024261	0.21698	-0.96878	-0.12039	-0.026245	0.032654	-0.036926	-0.077362	0.00412	-0.043945	-0.013275	0.067749	0.005035	-0.068207	0.025482	-0.43274	-0.097351	0.14816	-0.002441	-0.46081	-0.026855	0.046234	-0.017395	-0.12817	-0.005035	0.30838	0.10101	0	-0.03067
40.301	0.062408	0.00351	0.011597	0.025635	0.18463	-0.77011	-0.048523	-0.02533	-0.068054	-0.029602	-0.049591	-0.009308	-0.039978	-0.056	0.028687	0.005646	-0.06546	0.001526	-0.23544	-0.095062	0.14114	-0.005188	-0.39505	0.014343	0.042267	-0.013275	-0.10651	-0.010834	0.34302	0.18723	-0.002747	-0.023499
40.302	0.048065	0.028076	0.000458	0.017548	0.11871	-0.61066	0.045013	-0.005951	-0.19226	-0.019836	-0.043182	0.007172	-0.037842	-0.032196	-0.062866	-0.002136	-0.04837	-0.042725	-0.13199	-0.064392	0.14572	-0.013733	-0.35812	-0.036469	0.020447	-0.008698	-0.050964	-0.007629	-0.62363	0.17227	-0.000458	-0.016632
40.303	0.041199	0.035706	-0.00885	0.028076	0.067444	-0.31708	-0.016937	0.001984	-0.33615	-0.034332	-0.027008	-0.005035	-0.026855	-0.011292	-0.074921	0.003662	-0.04837	-0.00061	-0.23453	0.025024	0.14343	-0.011444	-0.34485	-0.033722	0.008087	-0.00824	0.064545	-0.00885	-0.44174	0.082092	-0.003204	-0.008392
40.304	0.027008	0.076294	-0.070648	0.014496	0.010529	-0.063629	-0.0914	0.010681	-0.28107	-0.041351	0.009003	-0.010834	-0.051727	-0.021667	-0.061646	-0.001678	-0.034027	-0.009766	-0.50781	0.058289	0.14175	-0.022583	-0.33661	-0.040588	0.027466	-0.011444	0.18387	-0.009003	-0.003815	0.058441	-0.00061	-0.00946
40.305	0.027466	0.089874	-0.14847	-0.00061	-0.007782	-0.006256	-0.022278	0.019531	-0.12131	-0.038757	0.052795	-0.002899	-0.020752	-0.018616	-0.061951	0.009918	-0.007935	0.007324	-0.098114	-0.009155	0.14572	-0.041199	-0.34698	-0.041199	0.035095	-0.004883	0.1294	-0.010834	0.063477	0.08255	-0.000458	-0.016174
40.306	0.018158	0.14404	-0.15656	-0.024109	0.009003	0.055237	0.18204	0.020752	-0.090332	-0.024567	0.10071	-0.015411	-0.005798	0.001984	0.061493	0.002441	0.030823	0.009003	0.15701	0.015106	0.14786	-0.01358	-0.39352	-0.076752	0.017242	-0.00412	0.22003	-0.008545	-0.070648	0.073395	0.00061	-0.010071
40.307	-0.002594	0.10498	-0.046997	-0.016174	0.05188	0.11353	0.17166	0.033417	-0.19974	-0.0354	0.14603	-0.009918	0.040894	0.017395	0.12726	0.013275	0.039978	0.001221	0.012207	0.014038	0.16174	-0.017853	-0.61996	-0.075531	0.031128	-0.012512	0.31052	-0.002899	-0.64209	0.018158	-0.002441	-0.019989
40.308	-0.003662	0.16174	-0.058594	0.008392	0.083466	0.1506	-0.084534	0.015564	-0.1506	-0.034027	0.14053	-0.00351	0.002899	0.065918	0.233	-0.010071	0.055084	0.029755	-0.16846	-0.012512	0.16769	-0.016785	-0.55893	-0.11231	0.054474	-0.014191	0.37903	-0.011902	-0.64789	-0.086517	-0.001526	-0.018463
40.309	0.005341	0.21454	-0.010223	0.017548	0.10315	0.22003	-0.19287	-0.043793	-0.033417	-0.004272	0.16998	-0.018616	-0.1506	0.051117	0.11917	-0.006866	0.077362	0.008698	-0.10742	-0.13351	0.18768	-0.002289	-0.47607	-0.064697	0.047607	0.005035	0.24994	-0.014954	-0.14084	-0.14938	-0.001526	-0.015717
40.31	-0.013885	0.2536	-0.15717	-0.006256	0.085754	0.27969	-0.035858	-0.084839	0.066223	-0.005341	0.13443	-0.010986	-0.27206	0.1648	0.2829	-0.000916	0.057983	-0.042267	-0.23163	-0.16541	0.18631	-0.001221	-0.53848	-0.041504	0.026398	0.012512	0.047913	-0.017548	0.48645	-0.112	-0.004883	-0.018005
40.311	-0.035706	0.34897	-0.25467	-0.003815	0.028381	0.40329	0.12116	-0.08667	0.086517	-0.009918	0.09964	-0.014496	-0.25009	0.11169	-0.003967	0.007172	0.047913	-0.063019	-0.25299	-0.16266	0.19531	0.010834	-0.57999	-0.017548	0.02533	0.029602	-0.1149	-0.005188	0.59494	-0.042419	-0.012665	-0.018005
40.312	-0.039368	0.36423	-0.31555	-0.010834	-0.048065	0.26169	0.18692	-0.049896	0.000153	-0.0354	0.051727	-0.017548	0.10819	0.11398	0.77927	0.028839	0.044098	-0.088043	-0.12665	-0.1152	0.1947	0.006409	-0.56778	0.010986	0.037842	0.01358	-0.23163	0.000458	-0.033417	-0.086212	-0.007019	-0.016327
40.313	-0.028534	0.44098	-0.19898	-0.004578	-0.092926	0.067749	0.12466	-0.015869	-0.028992	-0.0737	-0.18326	-0.009003	0.057983	0.091553	0.24002	0.035706	0.036774	-0.08606	-0.056305	0.080872	0.18738	0.022888	-0.63446	0.014496	0.057373	0.00946	-0.21851	-0.002136	0.047913	-0.19089	-0.003357	-0.014038
40.314	-0.016327	0.48798	0.15182	0	-0.06134	-0.060883	0.07782	-0.020142	-0.02655	-0.059509	-0.24597	-0.010681	0.023499	0.007172	-0.014801	0.041809	0.039063	-0.15595	0.003204	0.048828	0.1944	0.004425	-0.63705	-0.011749	0.053253	-0.001678	-0.1619	-0.005646	0.2861	-0.40405	-0.003204	-0.026703
40.315	0.001373	0.56244	0.22873	-0.002136	-0.061188	-0.22095	-0.010071	-0.024567	0.15182	-0.05249	-0.30685	-0.003357	0.041046	-0.046692	-0.52155	0.056	0.033722	-0.16937	0.17059	0.017242	0.20035	0.019226	-0.6044	0.040131	0.06012	-0.012512	-0.26169	-0.087433	0.062714	-0.37155	-0.003204	-0.0177
40.316	0.017853	0.63126	0.12619	0.02655	-0.030823	-0.3389	-0.12329	-0.008545	0.32791	-0.044861	-0.15549	-0.004425	0.053711	-0.080261	-0.97168	0.043945	0.020142	-0.14999	0.03006	0.086517	0.19928	0.022125	-0.63461	0.048523	0.039825	-0.009766	-0.31815	-0.034637	-0.12238	0.24307	-0.002594	-0.0177
40.317	0.017853	0.71243	0.15411	0.028992	0.019836	-0.17914	-0.11337	0.010376	0.30975	-0.029144	-0.06897	-0.00473	0.052338	-0.13489	-0.96268	0.028992	0.021515	-0.17578	0.076294	0.079041	0.19104	0.026093	-0.63461	0.047913	0.029602	-0.00946	-0.2832	0.032806	0.063171	0.46661	-0.001068	-0.024719
40.318	0.016479	0.75043	0.23544	0.022278	-0.009003	-0.084381	-0.18555	0.007477	0.35461	-0.014496	0.019989	0.001526	0.020142	-0.046234	-0.75668	0.03952	0.022736	-0.14358	0.26169	0.048065	0.20218	0.027161	-0.63934	-0.00412	0.02594	0.000305	-0.15015	0.003357	0.27588	0.29511	0.001373	-0.033112
40.319	0.009155	0.74219	0.22995	0.013275	-0.045471	-0.20493	-0.25192	0.016632	0.46768	-0.013123	0.046997	-0.006256	-0.030365	0.098572	-0.36011	0.048828	0.004883	-0.12054	0.33417	-0.011597	0.18646	0.033569	-0.63141	0.02243	0.032806	0.010376	0.12329	-0.008087	0.20721	0.12528	-0.000763	-0.024567
40.32	0.000305	0.7579	0.23895	0.007019	-0.091705	-0.13107	-0.11459	0.021667	0.35767	-0.042877	-0.20508	0.004425	0.036774	0.13947	-0.21912	0.05722	-0.029907	-0.11246	0.44052	-0.090942	0.18219	0.032349	-0.63828	0.023193	0.02121	0.006104	0.29419	-0.014343	-0.030518	0.061188	-0.001221	-0.018921
40.321	-0.011292	0.78049	0.12741	0.007019	-0.15884	0.10391	-0.069427	0.022125	0.26215	-0.071716	-0.3331	0.00885	0.088043	0.035553	-0.069733	0.045319	-0.040894	-0.15366	0.11749	-0.045929	0.18249	0.001984	-0.62195	-0.029144	0.008545	0.001373	0.12848	-0.018158	-0.084991	0.10208	0.002136	-0.026855
40.322	-0.006866	0.74234	0.038452	0.006256	-0.13657	0.159	-0.054626	0.017242	0.24735	-0.060272	-0.19302	0.010681	0.046234	-0.029602	0.12344	0.05722	-0.050659	-0.091705	-0.035858	-0.088348	0.16037	-0.023041	-0.6662	0.000153	0.005646	-0.014954	0.090637	-0.014191	-0.3508	0.079041	-0.003204	-0.028839
40.323	-0.006409	0.78415	0.062408	0.000458	-0.078583	0.11078	-0.097809	0.005798	0.064392	-0.058289	-0.16815	0.019989	-0.026398	0.027313	0.13428	0.074463	-0.051422	-0.065918	0.19974	-0.15259	0.15137	-0.010529	-0.65903	0.019684	0.001678	-0.018005	0.10254	-0.013733	-0.76157	0.03952	0.000458	-0.033722
40.324	-0.001984	0.84396	0.058289	0.004425	0.005798	0.015717	-0.1622	0.032196	-0.30456	-0.074615	-0.19577	0.031586	-0.052948	0.032806	0.023956	0.037689	-0.088501	-0.092316	0.16769	-0.09964	0.15274	-0.011139	-0.59982	-0.07309	0.00412	-0.0177	0.14832	-0.016632	-0.98419	0.029907	-0.001526	-0.037842
40.325	-0.008698	0.80688	0.00824	-0.006714	0.089722	0.031128	-0.16495	0.032196	-0.69641	-0.063171	-0.005646	0.0383	-0.13184	0.060883	0.045471	-0.013885	-0.083008	-0.14206	0.22003	-0.10254	0.15198	-0.010834	-0.63812	-0.052643	-0.010986	-0.016785	0.11612	-0.019989	-0.32852	-0.014648	-0.000763	-0.036926
40.326	-0.014496	0.6987	-0.12924	0.004883	0.10727	0.11139	-0.22659	0.028839	-0.71762	-0.074463	0.1181	0.016937	-0.1709	0.1886	0.35049	-0.017395	-0.068359	-0.14267	0.30121	-0.07843	0.15289	-0.010223	-0.56915	-0.06073	0.005646	-0.016174	0.022888	-0.014191	0.24841	-0.089722	-0.002136	-0.028687
40.327	-0.020447	0.64011	-0.22034	-0.013885	0.04837	0.21545	-0.2507	0.028992	-0.43289	-0.10162	0.215	0.028687	-0.12848	0.22446	0.23834	-0.025635	-0.061646	-0.12482	0.44067	-0.045624	0.15167	-0.014191	-0.61752	-0.074005	0.012512	-0.007172	-0.049133	-0.019684	0.027618	-0.12665	-0.003204	-0.033722
40.328	-0.032959	0.68481	-0.23392	-0.024872	-0.020294	0.44052	-0.24628	0.033722	-0.14969	-0.13153	0.22659	0.053864	-0.19592	0.27832	0.071259	-0.022278	-0.024872	-0.23468	0.58304	0.024109	0.1442	-0.026703	-0.57342	-0.12253	-0.009003	-0.007324	0.002899	-0.017853	-0.088348	0.012817	-0.001526	-0.040741
40.329	-0.05188	0.71014	-0.097046	-0.015259	-0.1091	0.61859	-0.090179	0.040283	-0.04837	-0.1326	0.21881	0.074005	-0.29327	0.31738	0.31067	-0.014648	-0.000305	-0.224	0.57098	0.12833	0.14435	-0.04364	-0.57724	-0.103	0.004425	-0.011902	0.029297	-0.021057	0.51086	0.041962	-0.003052	-0.027618
40.33	-0.032501	0.85556	-0.10651	0.033569	-0.12009	0.62882	-0.08194	0.005798	-0.030518	-0.14679	-0.051422	0.049744	-0.3447	0.4184	0.19913	-0.002594	-0.013885	-0.18509	0.67307	0.14465	0.13031	-0.079803	-0.55817	-0.16083	0.009155	0.003052	0.00061	-0.018005	0.2475	0.041504	-0.001068	-0.024109
